<?xml version="1.0" encoding="utf-8"?>
<!-- Generator: Adobe Illustrator 26.5.0, SVG Export Plug-In . SVG Version: 6.00 Build 0)  -->
<svg version="1.1" id="Layer_1" xmlns="http://www.w3.org/2000/svg" xmlns:xlink="http://www.w3.org/1999/xlink" x="0px" y="0px"
	 viewBox="0 0 537 121" style="enable-background:new 0 0 537 121;" xml:space="preserve">
<style type="text/css">
	.st0{fill:#1B2932;}
	.st1{fill:#FFFFFF;}
	.st2{fill:#81888D;}
	.st3{fill:#B2A282;}
</style>
<g>
	<circle class="st0" cx="60.2" cy="60.5" r="60"/>
	<path class="st1" d="M50,52.1c0-5.9,0-11.7,0-17.6c0-1.6,0.6-2.2,2.2-2.2c3.4,0,6.8,0,10.2,0c1.6,0,2.2,0.6,2.3,2.2
		c0,5.1,0,10.2,0,15.2c0,0.4-0.2,0.9,0.3,1.1c0.6,0.3,0.8-0.4,1-0.6c2.1-2.3,4.1-4.6,6.2-6.9c3-3.3,5.9-6.5,8.9-9.8
		c0.8-0.9,1.9-1.3,3.1-1.3c4.9,0,9.8,0,14.7,0c0.5,0,0.9,0,1.1,0.5c0.2,0.5-0.1,0.8-0.4,1.2C93.1,41.1,86.5,48.2,80,55.3
		c-0.9,1-1,1.7-0.2,2.9c7,9.6,14,19.2,21,28.9c0.1,0.2,0.2,0.3,0.4,0.5c0.3,0.4,0.4,0.7,0.2,1.2c-0.2,0.4-0.6,0.4-1,0.4
		c-2.1,0-4.3,0-6.4,0c-1.6,0-3.1,0-4.7,0c-1.3,0-2.2,0-3.2-0.1c-1.3-0.1-2.3-0.5-3.1-1.6c-4.4-6-8.8-12-13.1-18
		c-0.2-0.2-0.3-0.5-0.5-0.7c-0.6-0.6-1.2-0.6-1.8,0c0,0-0.1,0.1-0.1,0.1c-3,3.1-2.8,2.8-2.8,7.2c0,3.6,0,7.2,0,10.7
		c0,1.7-0.6,2.2-2.2,2.2c-3.5,0-6.9,0-10.4,0c-1.4,0-2-0.6-2-2c0-5.6,0-11.3,0-16.9c0-1.7-0.4-2.2-2.2-2.2c-3.1,0-6.2,0-9.3,0
		c-1.5,0-2,0.5-2,1.9c0,5.6,0,11.2,0,16.8c0,1.9-0.8,2.4-2.4,2.4c-3.5,0-6.8,0-10.2,0c-1.5,0-2-0.5-2-2c0-17.5,0-35.1,0-52.6
		c0-1.5,0.6-2.2,2.1-2.2c0.5,0,7.4,0,10.3,0c1.5,0,2.2,0.7,2.2,2.2c0,1.7,0,13.9,0,17.9c0,1.6,0.4,2.1,2.1,2.1c3.1,0,6.2,0,9.3,0
		C49.7,54.4,50,53.9,50,52.1z"/>
	<path class="st0" d="M145.2,33.5v23H137V2.3h8.2v23h9.9v-23h8.2v54.3h-8.2v-23H145.2z"/>
	<path class="st0" d="M184.3,1.6c3.6,0,6.7,1.3,9.2,3.8c2.5,2.5,3.8,5.6,3.8,9.2v29.6c0,3.6-1.3,6.7-3.8,9.2
		c-2.5,2.5-5.6,3.8-9.2,3.8c-3.6,0-6.7-1.3-9.2-3.8c-2.5-2.5-3.8-5.6-3.8-9.2V14.6c0-3.6,1.3-6.7,3.8-9.2
		C177.7,2.8,180.8,1.6,184.3,1.6z M188.8,14.4c0-1.3-0.5-2.4-1.4-3.3c-0.9-0.9-2-1.4-3.3-1.4c-1.3,0-2.4,0.5-3.3,1.4
		c-0.9,0.9-1.4,2-1.4,3.3v29.7c0,1.3,0.5,2.4,1.4,3.3c0.9,0.9,2,1.4,3.3,1.4c1.3,0,2.4-0.5,3.3-1.4c0.9-0.9,1.4-2,1.4-3.3V14.4z"/>
	<path class="st0" d="M227.7,56.5h-22.3V2.3h8.2v46.1h14.1V56.5z"/>
	<path class="st0" d="M255,56.5h-22.3V2.3h8.2v46.1H255V56.5z"/>
	<path class="st0" d="M268.3,56.5h-8.2V2.3h8.2V56.5z"/>
	<path class="st0" d="M285.4,2.2l10.6,36.5V2.2h8v54.3h-8.6l-11-34.8v34.8h-8V2.2H285.4z"/>
	<path class="st0" d="M324.3,57.2c-3.6,0-6.7-1.3-9.2-3.8c-2.5-2.5-3.8-5.6-3.8-9.1V14.7c0-3.6,1.3-6.7,3.8-9.2
		c2.5-2.5,5.6-3.8,9.2-3.8c3.6,0,6.7,1.3,9.2,3.8c2.5,2.5,3.8,5.6,3.8,9.2v3.9h-8.5v-4.1c0-1.3-0.5-2.4-1.4-3.3
		c-0.9-0.9-2-1.4-3.3-1.4c-1.3,0-2.4,0.5-3.3,1.4c-0.9,0.9-1.4,2-1.4,3.3v29.7c0,1.3,0.5,2.4,1.4,3.3c0.9,0.9,2,1.4,3.3,1.4
		c1.3,0,2.4-0.5,3.3-1.4c0.9-0.9,1.4-2,1.4-3.3V33.5h-4.5v-6.7h13v17.5c0,3.6-1.3,6.7-3.8,9.2C330.9,56,327.8,57.2,324.3,57.2z"/>
	<path class="st0" d="M368,43c0.1,3.8-0.9,7-2.9,9.7c-1.3,1.8-3.2,3.1-5.6,3.9c-1.3,0.4-2.8,0.6-4.5,0.6c-3.2,0-5.9-0.8-8-2.4
		c-1.8-1.3-3.2-3.1-4.2-5.3c-1-2.2-1.6-4.8-1.8-7.7l7.8-0.6c0.3,3.2,1.2,5.5,2.5,6.9c1,1.1,2.1,1.6,3.4,1.5c1.8-0.1,3.2-0.9,4.3-2.6
		c0.5-0.8,0.8-2,0.8-3.6c0-2.3-1-4.5-3.1-6.7c-1.6-1.5-4-3.8-7.3-6.9c-2.7-2.6-4.6-5-5.8-7.1c-1.2-2.3-1.8-4.9-1.8-7.6
		c0-4.9,1.7-8.7,5-11.2c2-1.5,4.6-2.3,7.6-2.3c2.9,0,5.4,0.6,7.5,1.9c1.6,1,2.9,2.4,3.9,4.2c1,1.8,1.6,3.9,1.8,6.3l-7.8,1.4
		c-0.2-2.2-0.9-4-1.9-5.2c-0.8-0.9-1.8-1.3-3.2-1.3c-1.5,0-2.6,0.7-3.4,2c-0.6,1.1-1,2.4-1,4c0,2.5,1.1,5,3.2,7.6
		c0.8,1,2,2.1,3.6,3.5c1.9,1.6,3.2,2.7,3.8,3.3c2,2,3.6,4,4.7,6c0.5,0.9,0.9,1.8,1.3,2.6C367.6,39.8,368,41.5,368,43z"/>
	<path class="st0" d="M403.9,2.3h7.8L404,56.5h-8.5l-4.7-33.6l-4.4,33.6h-8.6l-8.3-54.3h7.8l5,35.8l3.9-35.8h8.6l4.3,35.8L403.9,2.3
		z"/>
	<path class="st0" d="M430.5,1.6c3.6,0,6.7,1.3,9.2,3.8c2.5,2.5,3.8,5.6,3.8,9.2v29.6c0,3.6-1.3,6.7-3.8,9.2
		c-2.5,2.5-5.6,3.8-9.2,3.8c-3.6,0-6.7-1.3-9.2-3.8c-2.5-2.5-3.8-5.6-3.8-9.2V14.6c0-3.6,1.3-6.7,3.8-9.2
		C423.9,2.8,426.9,1.6,430.5,1.6z M434.9,14.4c0-1.3-0.5-2.4-1.4-3.3c-0.9-0.9-2-1.4-3.3-1.4c-1.3,0-2.4,0.5-3.3,1.4
		c-0.9,0.9-1.4,2-1.4,3.3v29.7c0,1.3,0.5,2.4,1.4,3.3c0.9,0.9,2,1.4,3.3,1.4c1.3,0,2.4-0.5,3.3-1.4c0.9-0.9,1.4-2,1.4-3.3V14.4z"/>
	<path class="st0" d="M463.7,2.3c4.6,0,7.9,1.3,10,3.8c1.9,2.2,2.8,5.3,2.8,9.2v7.9c0,3.8-2.8,7.5-5.9,9l7.6,24.4h-8.9L463,33.8
		c-0.2,0-0.5,0-0.7,0H459v22.7h-8.2V2.3H463.7z M468.6,15.3c0-3.1-1.6-4.7-4.7-4.7H459V28h4.9c1.3,0,2.4-0.5,3.3-1.4
		c0.9-0.9,1.4-2,1.4-3.3V15.3z"/>
	<path class="st0" d="M488.5,10.5h-8.7V2.3h25.5v8.2h-8.7v46h-8.2V10.5z"/>
	<path class="st0" d="M518.7,33.5v23h-8.2V2.3h8.2v23h9.9v-23h8.2v54.3h-8.2v-23H518.7z"/>
	<path class="st2" d="M145.2,103.3v17.2H137V66.2h8.2v21.6l10.8-21.6h8l-11.2,22.1l13.1,32.2h-9.6l-8.6-22L145.2,103.3z"/>
	<path class="st2" d="M170.4,120.5V66.2h23.3v8.2h-15.1v14.8h11v8.2h-11v14.8h15.1v8.2H170.4z"/>
	<path class="st2" d="M221.8,120.5h-22.3V66.2h8.2v46.1h14.1V120.5z"/>
	<path class="st2" d="M249.1,120.5h-22.3V66.2h8.2v46.1h14.1V120.5z"/>
	<path class="st2" d="M255.7,97.8l-11-31.6h9l6.1,19.5l6-19.5h9.1l-11,31.6v22.7h-8.2V97.8z"/>
	<path class="st3" d="M291.5,103.1l-1.6,7.1H288l7-32.2h3.1l7.2,32.2h-2.1l-1.6-7.1H291.5z M291.8,101.2h9.4l-4.7-20.8L291.8,101.2z
		"/>
	<path class="st3" d="M321.4,110.2V80h-6.6v-1.9H330V80h-6.5v30.2H321.4z"/>
	<path class="st3" d="M347.2,110.2V80h-6.6v-1.9h15.2V80h-6.5v30.2H347.2z"/>
	<path class="st3" d="M369.6,85.9c0-4.7,2.2-8.1,7-8.1c5,0,7.1,3.4,7.1,8.1v16.4c0,4.7-2.2,8.1-7.1,8.1c-4.9,0-7-3.4-7-8.1V85.9z
		 M371.7,102.5c0,3.5,1.4,6.1,4.9,6.1c3.6,0,5-2.6,5-6.1V85.8c0-3.5-1.4-6.1-5-6.1c-3.5,0-4.9,2.6-4.9,6.1V102.5z"/>
	<path class="st3" d="M406.5,78.1c4.9,0,6.9,2.7,6.9,7.3v2.8c0,3.8-1.5,5.9-4.6,6.7c3.3,0.7,4.6,3.1,4.6,6.6v5
		c0,1.3,0.1,2.8,0.8,3.9H412c-0.6-1-0.7-2.1-0.7-3.9v-5.1c0-4.3-2.3-5.5-6-5.5h-3.4v14.4h-2.1V78.1H406.5z M405.3,93.9
		c3.8,0,6-1.1,6-5.4v-3c0-3.4-1.3-5.5-4.8-5.5h-4.5v13.9H405.3z"/>
	<path class="st3" d="M431.4,110.2h-1.9V78.1h2.8l9.6,27.1V78.1h1.9v32.1h-2.3l-10.1-28.7V110.2z"/>
	<path class="st3" d="M470.9,92.9v1.9h-8.8v13.4h10.6v1.9H460V78.1h12.7V80h-10.6v12.9H470.9z"/>
	<path class="st3" d="M492.4,97.8l-7.2-19.8h2.2l6.2,16.9l6.2-16.9h2.1l-7.3,19.8v12.4h-2.1V97.8z"/>
	<path class="st3" d="M526.9,85.8v0.7h-2v-0.8c0-3.4-1.3-6-4.8-6c-3.5,0-4.8,2.5-4.8,5.9c0,7.8,11.6,7.9,11.6,16.8c0,4.6-2,8-6.9,8
		c-4.9,0-6.9-3.4-6.9-8v-1.7h2v1.8c0,3.4,1.3,5.9,4.9,5.9c3.5,0,4.9-2.5,4.9-5.9c0-7.7-11.6-7.9-11.6-16.8c0-4.8,2.1-7.9,6.8-8
		C524.9,77.8,526.9,81.2,526.9,85.8z"/>
</g>
</svg>
