<svg width="16" height="22" viewBox="0 0 16 22" fill="none" xmlns="http://www.w3.org/2000/svg">
<path d="M8.00003 0.798462C3.72881 0.798462 0.263184 3.82237 0.263184 7.54846C0.263184 13.5485 8.00003 21.7985 8.00003 21.7985C8.00003 21.7985 15.7369 13.5485 15.7369 7.54846C15.7369 3.82237 12.2712 0.798462 8.00003 0.798462ZM8.00003 11.2985C7.38794 11.2985 6.78961 11.1225 6.28068 10.7929C5.77176 10.4632 5.37509 9.99469 5.14086 9.44651C4.90663 8.89833 4.84534 8.29513 4.96475 7.71319C5.08416 7.13125 5.37891 6.5967 5.81172 6.17714C6.24452 5.75758 6.79595 5.47186 7.39627 5.35611C7.99659 5.24035 8.61884 5.29976 9.18433 5.52682C9.74982 5.75389 10.2332 6.1384 10.5732 6.63175C10.9133 7.1251 11.0948 7.70512 11.0948 8.29846C11.0939 9.09384 10.7675 9.8564 10.1873 10.4188C9.60716 10.9812 8.82053 11.2976 8.00003 11.2985Z" fill="#F8F8F8"/>
</svg>
