<svg width="17" height="17" viewBox="0 0 17 17" fill="none" xmlns="http://www.w3.org/2000/svg">
<path d="M15.3571 6.78571H10.2143V1.64286C10.2143 1.01179 9.7025 0.5 9.07143 0.5H7.92857C7.2975 0.5 6.78571 1.01179 6.78571 1.64286V6.78571H1.64286C1.01179 6.78571 0.5 7.2975 0.5 7.92857V9.07143C0.5 9.7025 1.01179 10.2143 1.64286 10.2143H6.78571V15.3571C6.78571 15.9882 7.2975 16.5 7.92857 16.5H9.07143C9.7025 16.5 10.2143 15.9882 10.2143 15.3571V10.2143H15.3571C15.9882 10.2143 16.5 9.7025 16.5 9.07143V7.92857C16.5 7.2975 15.9882 6.78571 15.3571 6.78571Z" fill="#B2A282"/>
</svg>
