<svg width="26" height="24" viewBox="0 0 26 24" fill="none" xmlns="http://www.w3.org/2000/svg">
<path d="M6.30861 24H0.854065V7.63636H6.30861V24ZM3.58243 5.45455C2.0737 5.45455 0.854065 4.23164 0.854065 2.72618C0.854065 1.22073 2.07588 0 3.58243 0C5.0857 0 6.30861 1.22291 6.30861 2.72618C6.30861 4.23164 5.0857 5.45455 3.58243 5.45455ZM25.945 24H20.701V16.0364C20.701 14.1371 20.665 11.6945 17.9748 11.6945C15.2442 11.6945 14.8242 13.7629 14.8242 15.8989V24H9.58134V7.62436H14.6148V9.86182H14.6857C15.3861 8.57455 17.0977 7.21745 19.6504 7.21745C24.9632 7.21745 25.945 10.6091 25.945 15.0185V24Z" fill="white"/>
</svg>
